HIERARCHY
ROOT Hips
{
	OFFSET 0.000000 0.000000 0.000000
	CHANNELS 6 Xposition Yposition Zposition Xrotation Yrotation Zrotation
	JOINT LeftUpLeg_virtual
	{
		OFFSET 0.000000 0.000000 0.000000
		CHANNELS 3 Xrotation Yrotation Zrotation
		JOINT LeftUpLeg
		{
			OFFSET 15.427100 -6.655098 0.678600
			CHANNELS 3 Xrotation Yrotation Zrotation
			JOINT LeftLeg
			{
				OFFSET 4.081073 -39.591068 13.024000
				CHANNELS 3 Xrotation Yrotation Zrotation
				JOINT LeftFoot
				{
					OFFSET -4.081074 -37.707932 -15.979700
					CHANNELS 3 Xrotation Yrotation Zrotation
					JOINT LeftToeBase
					{
						OFFSET 5.346399 -15.068900 20.645000
						CHANNELS 3 Xrotation Yrotation Zrotation
						JOINT LeftToe_End
						{
							OFFSET 2.754700 0.931300 11.300900
							CHANNELS 3 Xrotation Yrotation Zrotation
							End Site
							{
								OFFSET 0 0 0
							}
						}
					}
				}
			}
		}
	}
	JOINT RightUpLeg_virtual
	{
		OFFSET 0.000000 0.000000 0.000000
		CHANNELS 3 Xrotation Yrotation Zrotation
		JOINT RightUpLeg
		{
			OFFSET -15.569500 -6.655098 0.678600
			CHANNELS 3 Xrotation Yrotation Zrotation
			JOINT RightLeg
			{
				OFFSET -4.081825 -39.591045 13.023800
				CHANNELS 3 Xrotation Yrotation Zrotation
				JOINT RightFoot
				{
					OFFSET 4.081824 -37.707954 -15.979600
					CHANNELS 3 Xrotation Yrotation Zrotation
					JOINT RightToeBase
					{
						OFFSET -5.346400 -15.068900 20.645000
						CHANNELS 3 Xrotation Yrotation Zrotation
						JOINT RightToe_End
						{
							OFFSET -2.754700 0.931300 11.300900
							CHANNELS 3 Xrotation Yrotation Zrotation
							End Site
							{
								OFFSET 0 0 0
							}
						}
					}
				}
			}
		}
	}
	JOINT Spine_virtual
	{
		OFFSET 0.000000 0.000000 0.000000
		CHANNELS 3 Xrotation Yrotation Zrotation
		JOINT Spine
		{
			OFFSET -0.279200 12.230698 -2.892100
			CHANNELS 3 Xrotation Yrotation Zrotation
			JOINT Spine1
			{
				OFFSET -0.232667 10.192268 -1.242267
				CHANNELS 3 Xrotation Yrotation Zrotation
				JOINT Spine1_split
				{
					OFFSET -0.232667 10.192268 -1.242267
					CHANNELS 3 Xrotation Yrotation Zrotation
					JOINT Spine2
					{
						OFFSET -0.232667 10.192268 -1.242267
						CHANNELS 3 Xrotation Yrotation Zrotation
						JOINT Neck_virtual
						{
							OFFSET 0.000000 0.000000 0.000000
							CHANNELS 3 Xrotation Yrotation Zrotation
							JOINT Neck
							{
								OFFSET -0.418800 17.814194 8.416900
								CHANNELS 3 Xrotation Yrotation Zrotation
								JOINT Head
								{
									OFFSET 0.000000 7.031097 3.806800
									CHANNELS 3 Xrotation Yrotation Zrotation
									JOINT HeadTop_End
									{
										OFFSET 0.000000 24.646606 12.978600
										CHANNELS 3 Xrotation Yrotation Zrotation
										End Site
										{
											OFFSET 0 0 0
										}
									}
								}
							}
						}
						JOINT LeftShoulder_virtual
						{
							OFFSET 0.000000 0.000000 0.000000
							CHANNELS 3 Xrotation Yrotation Zrotation
							JOINT LeftShoulder
							{
								OFFSET 8.476499 7.247704 -3.868750
								CHANNELS 3 Xrotation Yrotation Zrotation
								JOINT LeftShoulder_split
								{
									OFFSET 8.476499 7.247704 -3.868750
									CHANNELS 3 Xrotation Yrotation Zrotation
									JOINT LeftArm
									{
										OFFSET 9.308998 -2.777710 0.208600
										CHANNELS 3 Xrotation Yrotation Zrotation
										JOINT LeftForeArm
										{
											OFFSET 29.972298 0.000000 0.000000
											CHANNELS 3 Xrotation Yrotation Zrotation
											JOINT LeftHand
											{
												OFFSET 26.026505 0.000000 0.000000
												CHANNELS 3 Xrotation Yrotation Zrotation
												End Site
												{
													OFFSET 0 0 0
												}
											}
										}
									}
								}
							}
						}
						JOINT RightShoulder_virtual
						{
							OFFSET 0.000000 0.000000 0.000000
							CHANNELS 3 Xrotation Yrotation Zrotation
							JOINT RightShoulder
							{
								OFFSET -7.570500 7.247704 -3.868750
								CHANNELS 3 Xrotation Yrotation Zrotation
								JOINT RightShoulder_split
								{
									OFFSET -7.570500 7.247704 -3.868750
									CHANNELS 3 Xrotation Yrotation Zrotation
									JOINT RightArm
									{
										OFFSET -9.308998 -2.777710 0.208500
										CHANNELS 3 Xrotation Yrotation Zrotation
										JOINT RightForeArm
										{
											OFFSET -29.972300 0.000000 0.000000
											CHANNELS 3 Xrotation Yrotation Zrotation
											JOINT RightHand
											{
												OFFSET -26.026505 0.000000 0.000000
												CHANNELS 3 Xrotation Yrotation Zrotation
												End Site
												{
													OFFSET 0 0 0
												}
											}
										}
									}
								}
							}
						}
					}
				}
			}
		}
	}
}
MOTION
Frames: 11
Frame Time: 0.03333333
0.325421 69.278633 1.587936 0.000000 0.000000 0.000000 5.669440 -4.710782 -21.063151 -68.178798 19.495392 19.386112 90.621495 -2.723903 5.152987 18.160462 1.885526 22.400022 -0.040875 -1.455016 -4.049654 0.000000 0.000000 0.000000 3.169569 -4.818566 -21.117599 -5.821536 -9.220673 -13.214400 47.210834 8.963950 10.942401 10.115683 15.233624 -6.050477 -47.627886 2.666198 -0.794358 0.000000 0.000000 0.000000 -0.126233 0.106871 -19.519069 5.413055 5.217830 2.416295 2.723099 2.192061 1.513589 1.135742 2.243478 0.807044 0.000000 0.000000 0.000000 1.861899 1.120017 2.664524 -7.123971 2.672847 -3.056434 -14.952872 6.488619 3.237514 0.000000 0.000000 0.000000 2.509490 1.697914 1.458612 -0.956550 -6.244649 -5.461587 -1.036252 1.226992 -2.184206 62.763298 -16.892357 -41.587567 10.211576 -76.281376 10.102367 0.000000 0.000000 0.000000 3.753599 2.243145 2.128133 2.926507 -5.129082 8.252620 7.679813 4.370263 -5.860414 -15.422250 21.737767 54.936646 7.988275 77.913095 -7.954705 0.000000 0.000000 0.000000 
0.479869 71.489021 15.453716 0.000000 0.000000 0.000000 2.950707 -7.406252 -21.426802 -71.267444 18.157201 18.605239 75.336174 0.054472 2.315804 18.891547 4.012698 20.784549 0.671222 -1.416838 -3.541946 0.000000 0.000000 0.000000 2.626686 -9.503715 -21.644796 -1.090674 -10.301552 -13.885127 46.291686 9.626944 10.234332 14.197574 15.869997 -0.186318 -47.826228 2.865595 -1.272252 0.000000 0.000000 0.000000 0.936222 -2.792961 -20.155063 3.339771 6.627193 2.687459 2.513456 2.667148 1.189151 0.858110 4.608050 0.074527 0.000000 0.000000 0.000000 1.856716 1.629486 2.477226 -6.307650 2.145081 -2.860152 -15.726150 7.291851 3.958758 0.000000 0.000000 0.000000 2.264923 2.315518 1.557613 -0.768764 -4.162220 -4.525058 -0.877618 3.000584 -2.179916 65.520666 -14.354821 -40.601315 8.905289 -79.249292 8.112034 0.000000 0.000000 0.000000 2.737408 2.602955 1.778892 2.118691 -3.631813 7.135049 6.705298 5.223858 -6.341962 -23.109390 27.071065 59.102822 68.624359 88.837190 -69.557130 0.000000 0.000000 0.000000 
1.369357 74.090187 32.440430 0.000000 0.000000 0.000000 1.458880 -9.153687 -20.769034 -69.144628 14.065057 12.454090 56.093417 3.040482 0.958257 18.330851 6.261992 18.362878 1.141177 -1.452366 -3.034654 0.000000 0.000000 0.000000 2.990463 -10.462554 -21.023794 6.358569 -8.977691 -13.908359 44.429312 9.865251 8.081622 17.333949 15.492898 6.295797 -45.380825 2.813939 -1.040082 0.000000 0.000000 0.000000 2.061999 -4.645059 -19.696411 1.607802 9.338866 2.619432 2.356582 3.718189 0.887753 0.748320 4.673381 -0.190939 0.000000 0.000000 0.000000 1.718034 2.662667 2.088151 -5.238336 1.324196 -1.875115 -15.818889 8.755783 4.230737 0.000000 0.000000 0.000000 1.871765 3.520811 1.498193 -0.750301 -1.455523 -3.617741 -0.883713 3.113135 -1.385830 67.578950 -12.057611 -41.997071 7.276676 -83.058188 5.835358 0.000000 0.000000 0.000000 2.076646 3.581091 1.271759 1.435202 -1.790488 6.146544 6.653672 3.650980 -5.873924 -29.056151 32.782681 63.089050 176.108081 78.970552 -177.921292 0.000000 0.000000 0.000000 
3.157347 75.150978 50.395138 0.000000 0.000000 0.000000 0.732553 -8.804949 -19.395294 -63.471609 8.589389 3.438701 40.996653 5.541648 0.818834 15.867088 8.740542 16.916201 1.302206 -1.530299 -2.523780 0.000000 0.000000 0.000000 4.298502 -7.502596 -19.509891 12.961199 -6.173383 -13.922241 44.336916 9.005341 4.952065 17.893380 11.811788 9.418074 -38.992300 2.643064 -0.390640 0.000000 0.000000 0.000000 1.852874 -4.065136 -18.597454 1.086810 12.353659 2.013674 2.397670 4.808067 0.743321 1.086136 3.050186 0.241356 0.000000 0.000000 0.000000 1.409210 3.670987 1.688153 -4.191869 0.814262 -0.420193 -15.178092 10.781610 4.042171 0.000000 0.000000 0.000000 1.561369 4.692086 1.346889 -0.809023 0.876905 -3.137456 -0.164123 2.294544 -0.702953 66.809659 -11.134095 -45.100040 3.944933 -85.896015 2.329347 0.000000 0.000000 0.000000 1.896081 4.591105 0.746994 0.852170 -0.208417 5.771086 7.596614 1.287144 -4.226121 -28.751951 36.509738 64.577854 177.807296 71.175236 179.833471 0.000000 0.000000 0.000000 
5.731605 74.144524 68.314590 0.000000 0.000000 0.000000 0.028623 -5.630272 -17.394354 -57.137350 3.544072 -5.332002 34.674698 7.147358 0.689885 10.176284 10.761230 17.628269 1.088722 -1.342347 -2.049998 0.000000 0.000000 0.000000 5.720555 -1.819961 -17.844805 14.878937 -2.728817 -14.366869 49.707928 6.898994 1.833017 16.284259 4.359747 7.771231 -28.644201 2.511613 0.425166 0.000000 0.000000 0.000000 0.704005 -0.217930 -16.973596 1.922472 14.331682 0.914889 2.714112 5.424438 0.683580 0.447672 1.779535 0.607015 0.000000 0.000000 0.000000 1.033205 4.076663 1.376061 -3.342896 0.807017 0.876104 -13.906592 13.035845 3.532586 0.000000 0.000000 0.000000 1.437009 5.174001 1.079931 -0.868414 2.109615 -3.262468 1.241913 1.491676 -0.563218 61.867266 -11.873945 -48.560668 3.242215 -85.749043 2.022873 0.000000 0.000000 0.000000 2.109072 5.020641 0.352943 0.412278 0.772055 6.213296 8.764136 0.301596 -2.072633 -20.237808 36.719285 62.697086 177.605641 68.659254 -179.990129 0.000000 0.000000 0.000000 
9.039256 71.319366 85.694580 0.000000 0.000000 0.000000 -1.278901 -1.021742 -15.245742 -50.066386 0.915158 -11.754406 37.904049 7.675561 -0.179723 1.336791 11.476874 20.365993 -0.826796 -0.775651 -1.906856 0.000000 0.000000 0.000000 5.659336 5.826703 -16.800092 9.204352 1.178721 -15.225926 62.005065 4.015051 -0.546740 13.678489 -4.634347 2.924228 -16.563286 2.458702 1.093239 0.000000 0.000000 0.000000 -1.657525 6.001719 -14.601968 3.550647 14.203269 -0.594729 3.217918 5.080951 0.602712 -0.012116 0.834871 -0.127100 0.000000 0.000000 0.000000 0.663932 3.557237 1.127106 -2.676021 1.422481 1.558007 -12.009426 15.786898 3.038592 0.000000 0.000000 0.000000 1.624051 4.598536 0.732967 -0.844526 2.134685 -3.818282 2.222878 0.094834 -1.688919 51.913799 -13.740928 -51.507584 4.220650 -82.102528 4.096691 0.000000 0.000000 0.000000 2.529776 4.473624 0.163695 0.165846 0.665472 7.236000 8.661471 0.441214 0.047226 -5.298682 32.456536 59.372983 176.584842 70.985377 -178.430264 0.000000 0.000000 0.000000 
12.323987 68.163780 103.089462 0.000000 0.000000 0.000000 -3.193152 4.171216 -13.189929 -42.240871 0.757155 -16.236413 46.673285 8.274508 -1.316468 -9.490535 10.566197 25.440798 -3.910771 -0.100449 -2.080731 0.000000 0.000000 0.000000 4.766461 14.830012 -15.908718 -3.199848 5.519848 -15.719424 76.286656 1.319240 -1.491510 11.011364 -11.956688 -1.608485 -7.510294 2.215153 1.122511 0.000000 0.000000 0.000000 -4.741002 13.053817 -12.375738 5.138659 11.657625 -1.939267 3.738986 3.684338 0.488820 0.188851 0.332815 -0.945658 0.000000 0.000000 0.000000 0.391761 2.074681 0.942092 -1.900878 2.580888 1.602300 -9.843526 19.414843 2.800256 0.000000 0.000000 0.000000 2.088270 2.972246 0.435494 -0.750292 1.301243 -4.540956 2.556821 -0.989033 -4.000146 37.618821 -16.343878 -53.168228 3.590073 -76.965550 4.959760 0.000000 0.000000 0.000000 2.838473 2.889838 0.091653 -0.099232 -0.424204 8.102913 6.701503 1.054354 1.660358 11.129346 24.156166 57.547773 174.330033 75.902519 -175.507107 0.000000 0.000000 0.000000 
15.765836 66.702141 120.357971 0.000000 0.000000 0.000000 -4.599709 9.434922 -11.665766 -32.756682 1.338800 -18.721192 55.740747 7.747513 -1.703489 -16.800595 8.010753 29.068674 -8.574646 0.494332 -1.641494 0.000000 0.000000 0.000000 3.550493 23.193745 -15.071939 -20.012722 10.256860 -14.363850 85.629173 -0.411373 -2.008182 9.363681 -15.520005 -4.096459 -3.253218 1.658496 0.669407 0.000000 0.000000 0.000000 -6.191601 18.964903 -10.887550 5.835191 6.922363 -2.472919 4.100805 1.552896 0.319735 0.212797 0.189296 -1.054553 0.000000 0.000000 0.000000 0.285799 -0.089548 0.766551 -0.741745 3.892505 1.152302 -7.802471 23.272256 2.857567 0.000000 0.000000 0.000000 2.596578 0.671123 0.293757 -0.674466 0.269110 -5.092908 1.810568 -1.073936 -6.667983 21.352531 -18.810722 -52.968059 2.370629 -74.110326 5.091707 0.000000 0.000000 0.000000 2.958850 0.621404 0.080337 -0.360300 -2.382055 7.867373 3.946500 2.314066 2.301868 25.716055 14.486592 57.404421 171.843817 79.169290 -172.380410 0.000000 0.000000 0.000000 
19.439123 67.602364 137.602783 0.000000 0.000000 0.000000 -4.570309 14.901635 -11.164661 -21.553574 1.598673 -19.026469 59.770193 5.781285 -0.956494 -17.119176 5.694215 29.040878 -14.928524 0.633774 -0.199920 0.000000 0.000000 0.000000 2.121221 28.832694 -14.017907 -37.490625 14.295617 -11.330898 86.059926 -1.276868 -2.571739 10.405318 -15.101362 -3.895587 -1.152348 1.030234 0.039091 0.000000 0.000000 0.000000 -5.493773 22.569431 -10.486163 5.218815 0.954343 -2.257848 4.200344 -0.847233 0.207881 0.986405 0.018056 -1.029859 0.000000 0.000000 0.000000 0.339856 -2.382867 0.631770 0.740776 5.002598 0.525981 -6.371773 26.991943 3.219264 0.000000 0.000000 0.000000 2.870909 -1.767853 0.457034 -0.655007 -0.503999 -5.144282 0.571947 0.351598 -8.568820 6.497798 -20.381121 -50.600101 0.762845 -77.433718 4.265346 0.000000 0.000000 0.000000 2.871475 -1.834595 0.109129 -0.543973 -4.813444 6.286977 1.839670 4.143067 1.835826 37.339606 5.592201 57.954968 173.308318 77.955299 -173.368356 0.000000 0.000000 0.000000 
23.631281 70.533798 154.001144 0.000000 0.000000 0.000000 -2.910393 19.861164 -11.350587 -9.281322 1.474177 -17.663873 56.542386 4.286727 -0.254220 -12.634292 4.694106 28.149049 -20.346085 0.190523 1.695595 0.000000 0.000000 0.000000 0.877743 30.838041 -12.771950 -51.564100 17.238807 -7.708909 77.324346 -0.971658 -2.869188 15.106353 -11.522506 -0.855646 0.529808 0.437943 -0.515066 0.000000 0.000000 0.000000 -2.623291 23.914284 -11.208037 3.512657 -4.948680 -1.883116 4.037257 -3.002375 0.204189 2.028001 0.064277 -0.746513 0.000000 0.000000 0.000000 0.590724 -4.377716 0.581548 2.221839 5.523831 0.219584 -5.897389 30.538957 3.669179 0.000000 0.000000 0.000000 2.729324 -3.864278 0.859279 -0.693498 -0.866928 -4.859305 -0.650008 2.858003 -8.355107 -4.654450 -20.281835 -46.579459 -7.940197 -87.194250 -4.595579 0.000000 0.000000 0.000000 2.572974 -4.074087 0.192849 -0.611974 -7.087111 3.901268 0.802087 5.968843 0.374689 46.069325 -1.308312 57.785005 176.382573 72.946414 -176.194128 0.000000 0.000000 0.000000 
28.605154 74.031593 169.617828 0.000000 0.000000 0.000000 -0.789997 23.634548 -12.152666 1.782431 1.234227 -15.166206 48.867138 3.384742 -0.206585 -5.556292 5.162252 26.950782 -20.767412 -0.279030 2.974859 0.000000 0.000000 0.000000 0.159605 29.867294 -11.859580 -59.977742 19.371316 -4.409838 63.088326 1.020868 -2.931068 22.572822 -5.283300 4.518724 0.760175 -0.024979 -0.862418 0.000000 0.000000 0.000000 0.993483 23.774458 -12.189775 1.308056 -9.741731 -1.818624 3.740597 -4.553851 0.266711 2.019694 -0.246583 0.095524 0.000000 0.000000 0.000000 1.054838 -5.769049 0.694214 3.059177 5.382093 0.288055 -6.306046 33.482865 4.046467 0.000000 0.000000 0.000000 2.192658 -5.272743 1.330926 -0.787005 -0.923802 -4.682123 -0.616998 5.440935 -5.751291 -10.773086 -18.514343 -42.045459 -175.175938 -80.417759 -172.985428 0.000000 0.000000 0.000000 2.160926 -5.713498 0.432089 -0.383444 -8.629543 1.969039 0.859660 7.457998 -1.937585 51.893315 -5.138093 56.789867 178.133191 67.508415 -177.984662 0.000000 0.000000 0.000000 
